<svg width="24" height="24" viewBox="0 0 24 24" fill="none" xmlns="http://www.w3.org/2000/svg">
<path d="M5.56028 15.6656L6.03333 15.5034V15.0034V10.7147C6.03333 7.58053 8.68655 4.98613 12 4.98613C13.5991 4.98613 15.0983 5.5864 16.2282 6.67116C17.3541 7.76159 17.9667 9.19553 17.9667 10.7147V15.0034V15.5039L18.4403 15.6657C18.9553 15.8418 19.3 16.3061 19.3 16.8218C19.3 17.1367 19.1744 17.4403 18.9324 17.6784C18.6756 17.9213 18.3481 18.0504 18 18.0504H6C5.25989 18.0504 4.7 17.4746 4.7 16.8218C4.7 16.5069 4.82562 16.2033 5.06781 15.9651C5.21331 15.8272 5.38073 15.7271 5.56028 15.6656Z" stroke="#E4EAF0" stroke-width="1.4"/>
<path d="M12 3.5V4.5" stroke="#E4EAF0" stroke-width="1.5" stroke-linecap="round"/>
<path d="M9.5 17.5V18C9.5 19.3807 10.6193 20.5 12 20.5V20.5C13.3807 20.5 14.5 19.3807 14.5 18V17.5" stroke="#E4EAF0" stroke-width="1.4"/>
<circle cx="17" cy="7" r="3" fill="#FFAD00"/>
</svg>
