<svg width="24" height="24" viewBox="0 0 24 24" fill="none" xmlns="http://www.w3.org/2000/svg">
<circle cx="3" cy="3" r="3" transform="matrix(-1 0 0 1 15 9)" stroke="#66737F" stroke-width="1.5"/>
<path d="M16.2811 5.64365L16.6406 4.98543L16.2811 5.64365ZM16.2811 18.3561L15.9216 17.6979H15.9216L16.2811 18.3561ZM7.71898 18.3558L8.0785 17.6976L7.71898 18.3558ZM7.71905 5.64395L8.07856 6.30216L7.71905 5.64395ZM9.05693 3.97515L8.33298 3.77923L9.05693 3.97515ZM3.40092 9.95649L2.9261 10.537L3.40092 9.95649ZM3.04636 8.95084L2.34541 8.68407L3.04636 8.95084ZM5.63922 18.0656L5.80208 18.7977L5.63922 18.0656ZM4.76252 17.8416L5.31923 17.339L4.76252 17.8416ZM9.69542 20.7341L9.52358 21.4642L9.69542 20.7341ZM14.9433 20.0248L15.6672 20.2207L14.9433 20.0248ZM14.3048 20.734L14.4767 21.4641L14.3048 20.734ZM19.2371 17.8418L19.7938 18.3444L19.2371 17.8418ZM18.3606 18.0658L18.5233 17.3337L18.3606 18.0658ZM20.9535 8.95103L21.6545 8.68428L20.9535 8.95103ZM3.04624 15.0488L2.34527 15.3156L3.04624 15.0488ZM19.2369 6.15795L18.6802 6.66054L19.2369 6.15795ZM4.76275 6.15815L4.20605 5.65557L4.76275 6.15815ZM20.5991 14.0431L20.1243 14.6236L20.5991 14.0431ZM20.9537 15.0486L20.2527 14.7819L20.9537 15.0486ZM14.9432 3.97512L14.2193 4.17112L14.9432 3.97512ZM14.2193 4.17112C14.4567 5.04806 15.0502 5.82597 15.9215 6.30187L16.6406 4.98543C16.127 4.70494 15.7975 4.26038 15.6672 3.77913L14.2193 4.17112ZM15.9215 6.30187C16.7437 6.75093 17.6727 6.85509 18.5231 6.66605L18.1976 5.2018C17.6836 5.31605 17.128 5.25165 16.6406 4.98543L15.9215 6.30187ZM21.6545 8.68428C21.2278 7.56291 20.5918 6.53942 19.7936 5.65535L18.6802 6.66054C19.3582 7.41151 19.8943 8.2762 20.2526 9.21778L21.6545 8.68428ZM20.3608 11.9998C20.3608 11.4262 20.6285 10.9014 21.0739 10.5371L20.1242 9.3761C19.359 10.002 18.8608 10.9407 18.8608 11.9998H20.3608ZM21.074 13.4625C20.6286 13.0982 20.3608 12.5734 20.3608 11.9998H18.8608C18.8608 13.059 19.3591 13.9977 20.1243 14.6236L21.074 13.4625ZM19.7938 18.3444C20.592 17.4603 21.2279 16.4368 21.6546 15.3154L20.2527 14.7819C19.8944 15.7235 19.3584 16.5882 18.6804 17.3392L19.7938 18.3444ZM16.6406 19.0143C17.1281 18.7481 17.6838 18.6837 18.1978 18.798L18.5233 17.3337C17.6729 17.1446 16.7438 17.2488 15.9216 17.6979L16.6406 19.0143ZM15.6672 20.2207C15.7975 19.7394 16.1271 19.2948 16.6406 19.0143L15.9216 17.6979C15.0502 18.1738 14.4567 18.9518 14.2193 19.8289L15.6672 20.2207ZM11.9999 21.75C12.8529 21.75 13.6826 21.651 14.4767 21.4641L14.133 20.004C13.451 20.1645 12.7366 20.25 11.9999 20.25V21.75ZM9.52358 21.4642C10.3175 21.6511 11.1471 21.75 11.9999 21.75V20.25C11.2634 20.25 10.5491 20.1646 9.86725 20.0041L9.52358 21.4642ZM7.35947 19.014C7.87312 19.2946 8.20271 19.7393 8.33295 20.2206L9.78089 19.8289C9.54358 18.9517 8.95 18.1736 8.0785 17.6976L7.35947 19.014ZM5.80208 18.7977C6.31617 18.6834 6.87196 18.7477 7.35947 19.014L8.0785 17.6976C7.25614 17.2484 6.32692 17.1443 5.47636 17.3335L5.80208 18.7977ZM2.34527 15.3156C2.77193 16.4368 3.40779 17.4602 4.2058 18.3442L5.31923 17.339C4.64138 16.5881 4.10545 15.7235 3.7472 14.7821L2.34527 15.3156ZM3.6393 11.9998C3.6393 12.5735 3.3715 13.0983 2.92603 13.4626L3.87563 14.6238C4.64094 13.9979 5.1393 13.0591 5.1393 11.9998H3.6393ZM2.9261 10.537C3.37153 10.9014 3.6393 11.4262 3.6393 11.9998H5.1393C5.1393 10.9406 4.64099 10.0018 3.87575 9.37594L2.9261 10.537ZM4.20605 5.65557C3.40801 6.53953 2.77211 7.56287 2.34541 8.68407L3.74732 9.21761C4.1056 8.27617 4.64157 7.4116 5.31944 6.66073L4.20605 5.65557ZM7.35953 4.98573C6.87205 5.25199 6.31629 5.31637 5.80222 5.20203L5.47656 6.66625C6.32708 6.85542 7.25625 6.7513 8.07856 6.30216L7.35953 4.98573ZM8.33298 3.77923C8.20272 4.26056 7.87314 4.7052 7.35953 4.98573L8.07856 6.30216C8.94998 5.8262 9.54353 5.04815 9.78089 4.17108L8.33298 3.77923ZM11.9999 2.25C11.1471 2.25 10.3175 2.34894 9.52359 2.5358L9.86725 3.99591C10.5491 3.83542 11.2634 3.75 11.9999 3.75V2.25ZM14.4767 2.53591C13.6826 2.34898 12.8529 2.25 11.9999 2.25V3.75C12.7366 3.75 13.451 3.83545 14.133 3.996L14.4767 2.53591ZM9.78089 4.17108C9.80176 4.09396 9.83301 4.03971 9.8575 4.01077C9.8788 3.98561 9.88282 3.99224 9.86725 3.99591L9.52359 2.5358C8.81982 2.70145 8.46135 3.30489 8.33298 3.77923L9.78089 4.17108ZM3.87575 9.37594C3.80986 9.32205 3.77161 9.26366 3.75664 9.22529C3.7443 9.19365 3.7546 9.19848 3.74732 9.21761L2.34541 8.68407C2.04659 9.46925 2.48752 10.1783 2.9261 10.537L3.87575 9.37594ZM5.47636 17.3335C5.41127 17.348 5.35984 17.3453 5.33042 17.3386C5.30506 17.3328 5.30925 17.328 5.31923 17.339L4.2058 18.3442C4.6642 18.852 5.32557 18.9037 5.80208 18.7977L5.47636 17.3335ZM9.86725 20.0041C9.88282 20.0078 9.8788 20.0144 9.8575 19.9892C9.83301 19.9603 9.80176 19.906 9.78089 19.8289L8.33295 20.2206C8.46129 20.695 8.81976 21.2985 9.52358 21.4642L9.86725 20.0041ZM14.2193 19.8289C14.1984 19.906 14.1672 19.9602 14.1427 19.9891C14.1214 20.0143 14.1174 20.0077 14.133 20.004L14.4767 21.4641C15.1804 21.2984 15.5388 20.695 15.6672 20.2207L14.2193 19.8289ZM18.6804 17.3392C18.6904 17.3282 18.6946 17.333 18.6692 17.3388C18.6398 17.3455 18.5884 17.3482 18.5233 17.3337L18.1978 18.798C18.6742 18.9039 19.3355 18.8521 19.7938 18.3444L18.6804 17.3392ZM20.2526 9.21778C20.2453 9.19865 20.2556 9.19383 20.2432 9.22547C20.2283 9.26383 20.19 9.32221 20.1242 9.3761L21.0739 10.5371C21.5124 10.1784 21.9533 9.46939 21.6545 8.68428L20.2526 9.21778ZM3.7472 14.7821C3.75448 14.8012 3.74418 14.806 3.75653 14.7744C3.7715 14.736 3.80974 14.6776 3.87563 14.6238L2.92603 13.4626C2.48744 13.8213 2.04649 14.5304 2.34527 15.3156L3.7472 14.7821ZM18.5231 6.66605C18.5882 6.65159 18.6396 6.65427 18.669 6.66097C18.6944 6.66675 18.6902 6.67159 18.6802 6.66054L19.7936 5.65535C19.3353 5.1477 18.6741 5.09589 18.1976 5.2018L18.5231 6.66605ZM5.31944 6.66073C5.30947 6.67178 5.30527 6.66694 5.33063 6.66116C5.36004 6.65446 5.41147 6.65178 5.47656 6.66625L5.80222 5.20203C5.32574 5.09605 4.66443 5.14782 4.20605 5.65557L5.31944 6.66073ZM20.1243 14.6236C20.1902 14.6775 20.2284 14.7359 20.2434 14.7742C20.2557 14.8059 20.2454 14.801 20.2527 14.7819L21.6546 15.3154C21.9534 14.5302 21.5125 13.8212 21.074 13.4625L20.1243 14.6236ZM15.6672 3.77913C15.5388 3.30486 15.1803 2.70156 14.4767 2.53591L14.133 3.996C14.1174 3.99233 14.1214 3.9857 14.1427 4.01086C14.1672 4.03979 14.1984 4.09402 14.2193 4.17112L15.6672 3.77913Z" fill="#66737F"/>
</svg>
