<svg width="24" height="24" viewBox="0 0 24 24" fill="none" xmlns="http://www.w3.org/2000/svg">
<path d="M5.56028 15.3794L6.03333 15.2173V14.7172V10.4286C6.03333 7.29439 8.68655 4.7 12 4.7C13.5991 4.7 15.0983 5.30027 16.2282 6.38503C17.3541 7.47546 17.9667 8.9094 17.9667 10.4286V14.7172V15.2177L18.4403 15.3796C18.9553 15.5556 19.3 16.02 19.3 16.5357C19.3 16.8506 19.1744 17.1542 18.9324 17.3923C18.6756 17.6351 18.3481 17.7643 18 17.7643H6C5.25989 17.7643 4.7 17.1885 4.7 16.5357C4.7 16.2207 4.82562 15.9171 5.06781 15.6789C5.21331 15.5411 5.38073 15.441 5.56028 15.3794Z" stroke="#E4EAF0" stroke-width="1.4"/>
<path d="M12 3.5V4.5" stroke="#E4EAF0" stroke-width="1.5" stroke-linecap="round"/>
<path d="M9.5 17.5V18C9.5 19.3807 10.6193 20.5 12 20.5V20.5C13.3807 20.5 14.5 19.3807 14.5 18V17.5" stroke="#E4EAF0" stroke-width="1.4"/>
</svg>
