<svg width="24" height="24" viewBox="0 0 24 24" fill="none" xmlns="http://www.w3.org/2000/svg">
<path d="M5.00018 18.25C4.58597 18.25 4.25018 18.5858 4.25018 19C4.25018 19.4142 4.58597 19.75 5.00018 19.75V18.25ZM10.0002 19.75C10.4144 19.75 10.7502 19.4142 10.7502 19C10.7502 18.5858 10.4144 18.25 10.0002 18.25V19.75ZM5.00018 19.75H10.0002V18.25H5.00018V19.75Z" fill="#66737F"/>
<path d="M14.0002 18.25C13.586 18.25 13.2502 18.5858 13.2502 19C13.2502 19.4142 13.586 19.75 14.0002 19.75V18.25ZM19.0002 19.75C19.4144 19.75 19.7502 19.4142 19.7502 19C19.7502 18.5858 19.4144 18.25 19.0002 18.25V19.75ZM14.0002 19.75H19.0002V18.25H14.0002V19.75Z" fill="#66737F"/>
<path d="M4.25018 19C4.25018 19.4142 4.58597 19.75 5.00018 19.75C5.4144 19.75 5.75018 19.4142 5.75018 19L4.25018 19ZM5.75018 10C5.75018 9.58579 5.4144 9.25 5.00018 9.25C4.58597 9.25 4.25018 9.58579 4.25018 10L5.75018 10ZM5.75018 19L5.75018 10L4.25018 10L4.25018 19L5.75018 19Z" fill="#66737F"/>
<path d="M18.2502 19C18.2502 19.4142 18.586 19.75 19.0002 19.75C19.4144 19.75 19.7502 19.4142 19.7502 19L18.2502 19ZM19.7502 10C19.7502 9.58579 19.4144 9.25 19.0002 9.25C18.586 9.25 18.2502 9.58579 18.2502 10L19.7502 10ZM19.7502 19L19.7502 10L18.2502 10L18.2502 19L19.7502 19Z" fill="#66737F"/>
<path d="M20.4699 12.5307C20.7627 12.8236 21.2376 12.8236 21.5305 12.5307C21.8234 12.2378 21.8234 11.763 21.5305 11.4701L20.4699 12.5307ZM2.46965 11.4701C2.17677 11.763 2.17678 12.2379 2.46969 12.5308C2.76259 12.8236 3.23747 12.8236 3.53035 12.5307L2.46965 11.4701ZM21.5305 11.4701L13.9444 3.88393L12.8837 4.94459L20.4699 12.5307L21.5305 11.4701ZM10.0552 3.884L2.46965 11.4701L3.53035 12.5307L11.1159 4.94462L10.0552 3.884ZM13.9444 3.88393C12.8704 2.80997 11.1291 2.80999 10.0552 3.884L11.1159 4.94462C11.6041 4.45644 12.3955 4.45643 12.8837 4.94459L13.9444 3.88393Z" fill="#66737F"/>
<path d="M14 19V16.1037C14 14.9456 13.105 14 12 14C10.895 14 10 14.9456 10 16.1037V19" stroke="#66737F" stroke-width="1.5" stroke-miterlimit="10" stroke-linecap="round" stroke-linejoin="round"/>
</svg>
